<svg id="Calque_1" data-name="Calque 1" xmlns="http://www.w3.org/2000/svg" xmlns:xlink="http://www.w3.org/1999/xlink" viewBox="0 0 1044.1 258.5"><defs><style>.cls-1{fill:#2d2e2d;}.cls-2{opacity:0.35;}.cls-2,.cls-6{isolation:isolate;}.cls-3{fill:url(#Dégradé_sans_nom);}.cls-4{fill:url(#Dégradé_sans_nom_2);}.cls-5{fill:url(#Dégradé_sans_nom_3);}.cls-6{fill:#fff;opacity:0.25;}.cls-7{fill:#6b6c6c;}.cls-8{fill:url(#Dégradé_sans_nom_4);}.cls-9{fill:url(#Dégradé_sans_nom_5);}.cls-10{fill:url(#Dégradé_sans_nom_6);}.cls-11{fill:url(#Dégradé_sans_nom_7);}</style><linearGradient id="Dégradé_sans_nom" x1="53.27" y1="140.06" x2="120.59" y2="140.06" gradientTransform="matrix(1, 0, 0, -1, -4.19, 274.98)" gradientUnits="userSpaceOnUse"><stop offset="0" stop-color="#ddd193"/><stop offset="1" stop-color="#9d793a"/></linearGradient><linearGradient id="Dégradé_sans_nom_2" x1="207.17" y1="140.17" x2="213.35" y2="140.17" xlink:href="#Dégradé_sans_nom"/><linearGradient id="Dégradé_sans_nom_3" x1="53.27" y1="149.22" x2="213.34" y2="149.22" xlink:href="#Dégradé_sans_nom"/><linearGradient id="Dégradé_sans_nom_4" x1="293.31" y1="164.98" x2="307.27" y2="164.98" gradientTransform="matrix(1, 0, 0, -1, 0, 294)" xlink:href="#Dégradé_sans_nom"/><linearGradient id="Dégradé_sans_nom_5" x1="322.54" y1="163.9" x2="441.25" y2="163.9" gradientTransform="matrix(1, 0, 0, -1, 0, 294)" xlink:href="#Dégradé_sans_nom"/><linearGradient id="Dégradé_sans_nom_6" x1="456.66" y1="163.8" x2="570.61" y2="163.8" gradientTransform="matrix(1, 0, 0, -1, 0, 294)" xlink:href="#Dégradé_sans_nom"/><linearGradient id="Dégradé_sans_nom_7" x1="547.04" y1="163.95" x2="658.72" y2="163.95" gradientTransform="matrix(1, 0, 0, -1, 0, 294)" xlink:href="#Dégradé_sans_nom"/></defs><title>logo-imayweb</title><circle class="cls-1" cx="129.1" cy="129.2" r="120.3"/><image class="cls-2" width="700" height="654" transform="translate(42.8 47.9) scale(0.25)" xlink:href="5597A8FF.png"/><polygon class="cls-3" points="116.4 141.6 112.3 146.2 55.5 85.5 55.5 193.2 49.1 200.1 49.1 69.8 54.3 75.2 54.6 75.5 55.5 76.5 116.4 141.6"/><polygon class="cls-4" points="209.2 69.6 209.2 200.1 202.9 193.2 202.9 76.2 205.1 73.9 209.2 69.6"/><polygon class="cls-5" points="209.2 51.8 209.2 60.8 202.9 67.4 133.3 141.9 129 146.4 79.1 199.7 70.8 199.7 124.9 141.9 55.5 67.7 55.2 67.4 49.1 60.9 49.1 52 55.2 58.5 55.5 58.8 129 137.5 202.9 58.4 209.2 51.8"/><path class="cls-1" d="M158.7,22a128.2,128.2,0,0,1,65.4,35.4l.4-.6A128.7,128.7,0,0,0,97.7,24,129.2,129.2,0,0,0,41.1,57.7l.4.4C71.6,27.7,115.9,13.4,158.7,22Z" transform="translate(-4.2 -19)"/><path class="cls-1" d="M23.1,81.4A116.4,116.4,0,0,1,35.9,64l-.3-.4-2.5,2.9C-1.1,108.3-5.5,169,22.8,215.4c1.6,2.6,3.3,5.2,5.1,7.7v-.8C-1,181.1-3.3,124.9,23.1,81.4Z" transform="translate(-4.2 -19)"/><path class="cls-1" d="M34.2,230.7v.7a125.1,125.1,0,0,0,14,14.2l.3-.5A114.5,114.5,0,0,1,34.2,230.7Z" transform="translate(-4.2 -19)"/><path class="cls-1" d="M177.3,269.3c-41.8,15.2-88.9,7.1-123.3-19.6l-.3.4A124.6,124.6,0,0,0,79.9,266a130.2,130.2,0,0,0,79,9,126,126,0,0,0,48.3-20.9v-.4A127.1,127.1,0,0,1,177.3,269.3Z" transform="translate(-4.2 -19)"/><path class="cls-1" d="M238.3,73c-2.6-3.5-5.3-7-8.2-10.3l-.4.5a128.8,128.8,0,0,1,8.8,159.5,134.1,134.1,0,0,1-25.1,26.5v.4A129.7,129.7,0,0,0,261,168.2a144.2,144.2,0,0,0,1.6-19.8A131.3,131.3,0,0,0,238.3,73Z" transform="translate(-4.2 -19)"/><path class="cls-6" d="M71.4,50.5s40.8-36.2,100.4-9.4C171.9,41.1,123.6,17.6,71.4,50.5Z" transform="translate(-4.2 -19)"/><path class="cls-6" d="M110.9,260.8s70.9,18.1,123.8-53.6C234.7,207.2,194.6,281.5,110.9,260.8Z" transform="translate(-4.2 -19)"/><path class="cls-7" d="M300.8,228.3l-9-24.8h3.4l6.5,17.8,6.5-17.8h3.4l-9,24.8Z" transform="translate(-4.2 -19)"/><path class="cls-7" d="M342.4,206.9a12.8,12.8,0,1,1-9-3.7A12.2,12.2,0,0,1,342.4,206.9Zm-9-.4a8.9,8.9,0,0,0-6.7,2.8,8.8,8.8,0,0,0-2.8,6.7,9.1,9.1,0,0,0,2.8,6.7,8.8,8.8,0,0,0,6.7,2.8,9.5,9.5,0,0,0,6.7-16.2A8.8,8.8,0,0,0,333.4,206.5Z" transform="translate(-4.2 -19)"/><path class="cls-7" d="M363.8,206.8v21.6h-3.2V206.8h-5.8v-3.2h14.8v3.2Z" transform="translate(-4.2 -19)"/><path class="cls-7" d="M385.9,220.4H383v8h-3.2V203.6h7.1a8.6,8.6,0,0,1,5,2.5,8.3,8.3,0,0,1,0,11.9,6.4,6.4,0,0,1-2.6,2l5.5,8.5h-3.9ZM383,206.8v10.4h2.9a4.6,4.6,0,0,0,3.6-1.5,5.1,5.1,0,0,0,1.6-3.8,5,5,0,0,0-1.6-3.7,4.9,4.9,0,0,0-3.6-1.5H383Z" transform="translate(-4.2 -19)"/><path class="cls-7" d="M418.4,203.6v3.2H408.3v7.5h10.1v3.2H408.3v7.6h10.1v3.2H405.1V203.5h13.3Z" transform="translate(-4.2 -19)"/><path class="cls-7" d="M451.1,220.4v8h-3.2V203.6h7a8.8,8.8,0,0,1,5.1,2.5,8.4,8.4,0,0,1-6,14.4h-2.9Zm0-13.6v10.4H454a4.8,4.8,0,0,0,3.6-1.5,5.4,5.4,0,0,0,1.5-3.8,5.3,5.3,0,0,0-1.5-3.7,5.1,5.1,0,0,0-3.6-1.5h-2.9Z" transform="translate(-4.2 -19)"/><path class="cls-7" d="M479.9,203.6l9,24.8h-3.4l-3.2-8.8h-6.6l-3.2,8.8h-3.4l9-24.8Zm1.3,12.8-2.2-5.8-2.1,5.8Z" transform="translate(-4.2 -19)"/><path class="cls-7" d="M505.3,220.4h-2.9v8h-3.2V203.6h7a8.8,8.8,0,0,1,5.1,2.5,8.6,8.6,0,0,1,0,11.9,8,8,0,0,1-2.6,2l5.5,8.5h-4Zm-2.9-13.6v10.4h2.9a4.9,4.9,0,0,0,3.6-1.5,5.4,5.4,0,0,0,1.5-3.8,5.3,5.3,0,0,0-1.5-3.7,5.3,5.3,0,0,0-3.6-1.5h-2.9Z" transform="translate(-4.2 -19)"/><path class="cls-7" d="M532,206.8v21.6h-3.2V206.8H523v-3.2h14.8v3.2Z" transform="translate(-4.2 -19)"/><path class="cls-7" d="M561.4,203.6v3.2H551.3v7.5h10.1v3.2H551.3v7.6h10.1v3.2H548.1V203.5h13.3Z" transform="translate(-4.2 -19)"/><path class="cls-7" d="M572.8,203.6h2.9l10.2,17.7V203.6h3.2v24.8h-2.8L576,210.5v17.9h-3.2Z" transform="translate(-4.2 -19)"/><path class="cls-7" d="M610.1,203.6l9,24.8h-3.4l-3.2-8.8h-6.6l-3.2,8.8h-3.4l9-24.8Zm1.3,12.8-2.2-5.8-2.1,5.8Z" transform="translate(-4.2 -19)"/><path class="cls-7" d="M632.9,203.6v24.8h-3.2V203.6Z" transform="translate(-4.2 -19)"/><path class="cls-7" d="M651.1,220.4h-2.9v8H645V203.6h7a8.8,8.8,0,0,1,5.1,2.5,8.6,8.6,0,0,1,0,11.9,8,8,0,0,1-2.6,2l5.5,8.5h-4Zm-2.9-13.6v10.4h2.9a4.8,4.8,0,0,0,3.6-1.5,5.4,5.4,0,0,0,1.5-3.8,5.3,5.3,0,0,0-1.5-3.7,5.3,5.3,0,0,0-3.6-1.5h-2.9Z" transform="translate(-4.2 -19)"/><path class="cls-7" d="M683.5,203.6v3.2H673.4v7.5h10.1v3.2H673.4v7.6h10.1v3.2H670.2V203.5h13.3Z" transform="translate(-4.2 -19)"/><path class="cls-7" d="M715.4,203.6c4,0,7.1,1.1,9.4,3.4a12.8,12.8,0,0,1,0,18c-2.3,2.3-5.4,3.4-9.4,3.4H713V203.6Zm.8,3.2v18.3a8.2,8.2,0,0,0,6.3-2.5,9.4,9.4,0,0,0,0-13.4A8.5,8.5,0,0,0,716.2,206.8Z" transform="translate(-4.2 -19)"/><path class="cls-7" d="M752.8,203.6v3.2H742.7v7.5h10.1v3.2H742.7v7.6h10.1v3.2H739.5V203.5h13.3Z" transform="translate(-4.2 -19)"/><path class="cls-7" d="M801.5,222.4l2.4,2.2a13.4,13.4,0,0,1-9.3,4,12.7,12.7,0,1,1,0-25.4,13.4,13.4,0,0,1,9.3,4l-2.4,2.2a10,10,0,0,0-6.9-2.9,8.5,8.5,0,0,0-6.6,2.8,8.7,8.7,0,0,0-2.8,6.6,9.1,9.1,0,0,0,2.8,6.7,8.7,8.7,0,0,0,6.6,2.8C797,225.4,799.2,224.4,801.5,222.4Z" transform="translate(-4.2 -19)"/><path class="cls-7" d="M821,220.4h-2.9v8h-3.2V203.6h7a8.8,8.8,0,0,1,5.1,2.5,8.6,8.6,0,0,1,0,11.9,8,8,0,0,1-2.6,2l5.5,8.5h-4Zm-2.9-13.6v10.4H821a4.9,4.9,0,0,0,3.6-1.5,5.4,5.4,0,0,0,1.5-3.8,5.3,5.3,0,0,0-1.5-3.7,5.3,5.3,0,0,0-3.6-1.5h-2.9Z" transform="translate(-4.2 -19)"/><path class="cls-7" d="M861.4,206.9a12.8,12.8,0,1,1-9-3.7A12.2,12.2,0,0,1,861.4,206.9Zm-9-.4a8.9,8.9,0,0,0-6.7,2.8,8.8,8.8,0,0,0-2.8,6.7,9.1,9.1,0,0,0,2.8,6.7,8.8,8.8,0,0,0,6.7,2.8,9.5,9.5,0,0,0,0-19Z" transform="translate(-4.2 -19)"/><path class="cls-7" d="M880,203.6v24.8h-3.2V203.6Z" transform="translate(-4.2 -19)"/><path class="cls-7" d="M898.4,215.6a13,13,0,0,1-4.2-2.5,5.4,5.4,0,0,1-1.7-4,5.4,5.4,0,0,1,1.7-4.1,6.1,6.1,0,0,1,8.2,0,7.6,7.6,0,0,1,1.7,3l-2.9,1.2a4.7,4.7,0,0,0-.9-1.9,2.6,2.6,0,0,0-1.9-.7,2.4,2.4,0,0,0-1.8.7,2.2,2.2,0,0,0-.8,1.9,2.2,2.2,0,0,0,.8,1.8,9.1,9.1,0,0,0,2.3,1.6,11.6,11.6,0,0,1,5,3,7.3,7.3,0,0,1,2.3,5.4,7.5,7.5,0,0,1-2.3,5.5,7.7,7.7,0,0,1-11,0,8.6,8.6,0,0,1-2.2-4.9l3.1-1.2a7.5,7.5,0,0,0,1.4,4,4.4,4.4,0,0,0,3.2,1.3,4.2,4.2,0,0,0,3.2-1.3,4.7,4.7,0,0,0,1.4-3.2,4.7,4.7,0,0,0-1.4-3.3A7.3,7.3,0,0,0,898.4,215.6Z" transform="translate(-4.2 -19)"/><path class="cls-7" d="M922.5,215.6a12,12,0,0,1-4.2-2.5,5.4,5.4,0,0,1-1.7-4,5.6,5.6,0,0,1,5.8-5.7,5.6,5.6,0,0,1,4.1,1.6,7.6,7.6,0,0,1,1.7,3l-2.9,1.2a4.7,4.7,0,0,0-.9-1.9,2.6,2.6,0,0,0-1.9-.7,2.8,2.8,0,0,0-1.9.7,2.5,2.5,0,0,0-.7,1.9,2.4,2.4,0,0,0,.7,1.8,12.4,12.4,0,0,0,2.4,1.6,11.6,11.6,0,0,1,5,3,7.3,7.3,0,0,1,2.3,5.4,7.5,7.5,0,0,1-2.3,5.5,7.7,7.7,0,0,1-11,0,8.6,8.6,0,0,1-2.2-4.9l3.1-1.2a7.5,7.5,0,0,0,1.4,4,4.6,4.6,0,0,0,6.4,0,4.7,4.7,0,0,0,1.4-3.2,4.7,4.7,0,0,0-1.4-3.3A7.9,7.9,0,0,0,922.5,215.6Z" transform="translate(-4.2 -19)"/><path class="cls-7" d="M949.6,203.6l9,24.8h-3.4l-3.2-8.8h-6.6l-3.2,8.8h-3.4l9-24.8Zm1.2,12.8-2.1-5.8-2.1,5.8Z" transform="translate(-4.2 -19)"/><path class="cls-7" d="M968.8,203.6h2.9L982,221.3V203.6h3.2v24.8h-2.8L972,210.5v17.9h-3.2Z" transform="translate(-4.2 -19)"/><path class="cls-7" d="M1016.2,222.4l2.4,2.2a13.4,13.4,0,0,1-9.3,4,12.1,12.1,0,0,1-9-3.7,12.6,12.6,0,0,1,0-18,12.1,12.1,0,0,1,9-3.7,13.4,13.4,0,0,1,9.3,4l-2.4,2.2a10.2,10.2,0,0,0-6.9-2.9,9.4,9.4,0,0,0-9.4,9.4,9.4,9.4,0,0,0,2.7,6.7,9.1,9.1,0,0,0,6.7,2.8A10.6,10.6,0,0,0,1016.2,222.4Z" transform="translate(-4.2 -19)"/><path class="cls-7" d="M1042.9,203.6v3.2h-10.2v7.5h10.2v3.2h-10.2v7.6h10.2v3.2h-13.4V203.5h13.4Z" transform="translate(-4.2 -19)"/><path class="cls-8" d="M293.3,77.3V70.8h13.9V91Zm13.9,24.3v85.6H293.3V87.9Z" transform="translate(-4.2 -19)"/><path class="cls-9" d="M386.1,179l-4.3,9.3h-6.9L329.5,91v97.3h-7V71.9h14Zm-.7-15,41.8-92.1h14.1V188.3H427.2V89.5l-38,82.8Z" transform="translate(-4.2 -19)"/><path class="cls-10" d="M509,87.3,463.6,188.4h-6.9L509,72h9.4l52.2,116.4H555.8Z" transform="translate(-4.2 -19)"/><path class="cls-11" d="M611.4,138v50.3h-14V142.8L547,71.8h16.6l43.7,59.8Zm-.8-10.8,39.8-55.3h8.3l-44.1,61.5Z" transform="translate(-4.2 -19)"/><path class="cls-1" d="M748.8,115.4l-26.2,73h-9.4l-41-116.5h14.7L722,170.6,745.3,106Zm45.8,64.9-2.9,8h-7L741.2,71.9h14.7L791,170.6Zm.6-21.1,31.4-87.3h7l-34.9,97Z" transform="translate(-4.2 -19)"/><path class="cls-1" d="M849,188.4V71.9h83.7v7H862.9v47.7h62.8v7H862.9v47.7h72.2v7H849Z" transform="translate(-4.2 -19)"/><path class="cls-1" d="M950.5,181.3h57.9a23.6,23.6,0,0,0,17.6-7.1c4.8-4.8,7-11.3,7-19.3s-2.3-14.5-7-19.4a23.8,23.8,0,0,0-17.6-7.1H950.5v-6.9h51a33.1,33.1,0,0,0,12.5-2.3,19.6,19.6,0,0,0,8.8-6.9c2.2-3.1,3.2-7.2,3.2-12s-1-8.9-3.2-12a19.7,19.7,0,0,0-8.8-7,32.8,32.8,0,0,0-12.5-2.2h-51v-7h51a58.7,58.7,0,0,1,20,3.4,31.3,31.3,0,0,1,14.3,9.6,22.7,22.7,0,0,1,5.4,15.3,22.3,22.3,0,0,1-4.6,14.3,32,32,0,0,1-12.5,9.6,38.1,38.1,0,0,1,17.4,12.1,29.3,29.3,0,0,1,1.4,35.7,36.9,36.9,0,0,1-14.4,12,45.7,45.7,0,0,1-20.1,4.5H950.5v-7.3Z" transform="translate(-4.2 -19)"/></svg>